<?xml version="1.0" encoding="UTF-8" standalone="no" ?>
<!DOCTYPE svg PUBLIC "-//W3C//DTD SVG 1.1//EN" "http://www.w3.org/Graphics/SVG/1.1/DTD/svg11.dtd">
<svg xmlns="http://www.w3.org/2000/svg" xmlns:xlink="http://www.w3.org/1999/xlink" version="1.1" width="1280" height="1024" viewBox="0 0 1280 1024" xml:space="preserve">
<desc>Created with Fabric.js 5.3.0</desc>
<defs>
</defs>
<g transform="matrix(1 0 0 1 640 512)" id="background-logo"  >
<rect style="stroke: none; stroke-width: 0; stroke-dasharray: none; stroke-linecap: butt; stroke-dashoffset: 0; stroke-linejoin: miter; stroke-miterlimit: 4; fill: rgb(255,255,255); fill-rule: nonzero; opacity: 1;"  paint-order="stroke"  x="-640" y="-512" rx="0" ry="0" width="1280" height="1024" />
</g>
<g transform="matrix(1.9211538461538462 0 0 1.9211538461538462 640 408.97319120454506)" id="logo-logo"  >
<g style=""  paint-order="stroke"   >
		<g transform="matrix(0.7811107778947826 0 0 -0.7811107778947827 52.23403366546887 -14.894142369587968)"  >
<path style="stroke: none; stroke-width: 1; stroke-dasharray: none; stroke-linecap: butt; stroke-dashoffset: 0; stroke-linejoin: miter; stroke-miterlimit: 4; fill: rgb(255,94,185); fill-rule: nonzero; opacity: 1;"  paint-order="stroke"  transform=" translate(7.615550141881239, 0.2109999999999994)" d="M 0 0 C -0.117 4.206 -3.621 7.521 -7.827 7.405 C -12.033000000000001 7.289000000000001 -15.349 3.7840000000000003 -15.231 -0.4219999999999997 C -15.115 -4.628 -11.611 -7.943 -7.405 -7.827 C -3.199 -7.71 0.116 -4.206 0 0" stroke-linecap="round" />
</g>
		<g transform="matrix(0.7811107778947826 0 0 -0.7811107778947827 34.14165287420616 -99.94322198619955)"  >
<path style="stroke: none; stroke-width: 1; stroke-dasharray: none; stroke-linecap: butt; stroke-dashoffset: 0; stroke-linejoin: miter; stroke-miterlimit: 4; fill: rgb(255,94,185); fill-rule: nonzero; opacity: 1;"  paint-order="stroke"  transform=" translate(0.2105251894057769, -7.615525189405778)" d="M 0 0 C 4.206 0.117 7.521 3.621 7.405 7.827 C 7.288 12.033 3.784 15.348 -0.422 15.231 C -4.628 15.115 -7.943 11.611 -7.826 7.405 C -7.71 3.199 -4.206 -0.116 0 0" stroke-linecap="round" />
</g>
		<g transform="matrix(0.7811107778947826 0 0 -0.7811107778947827 -29.95893399610162 -105.66501465643444)"  >
<path style="stroke: none; stroke-width: 1; stroke-dasharray: none; stroke-linecap: butt; stroke-dashoffset: 0; stroke-linejoin: miter; stroke-miterlimit: 4; fill: rgb(255,94,185); fill-rule: nonzero; opacity: 1;"  paint-order="stroke"  transform=" translate(0.21050042930342006, -7.615525189405778)" d="M 0 0 C 4.206 0.117 7.521 3.621 7.405 7.827 C 7.288 12.033 3.784 15.348 -0.422 15.231 C -4.628 15.115 -7.942 11.611 -7.826 7.405 C -7.71 3.199 -4.206 -0.116 0 0" stroke-linecap="round" />
</g>
		<g transform="matrix(0.7811107778947826 0 0 -0.7811107778947827 -34.798012040538424 -65.41919948262296)"  >
<path style="stroke: none; stroke-width: 1; stroke-dasharray: none; stroke-linecap: butt; stroke-dashoffset: 0; stroke-linejoin: miter; stroke-miterlimit: 4; fill: rgb(255,94,185); fill-rule: nonzero; opacity: 1;"  paint-order="stroke"  transform=" translate(7.615524323866481, 0.2109999999999994)" d="M 0 0 C -0.116 4.206 -3.62 7.521 -7.826 7.405 C -12.032 7.288 -15.347999999999999 3.7840000000000003 -15.231 -0.4219999999999997 C -15.113999999999999 -4.628 -11.61 -7.943 -7.404 -7.827 C -3.198 -7.71 0.116 -4.206 0 0" stroke-linecap="round" />
</g>
		<g transform="matrix(0.7811107778947826 0 0 -0.7811107778947827 0 0)"  >
<path style="stroke: none; stroke-width: 1; stroke-dasharray: none; stroke-linecap: butt; stroke-dashoffset: 0; stroke-linejoin: miter; stroke-miterlimit: 4; fill: rgb(255,94,185); fill-rule: nonzero; opacity: 1;"  paint-order="stroke"  transform=" translate(133.4314300185866, -28.347499785218673)" d="M 0 0 C -0.716 -13.631 -8.691 -28.426 -28.922 -29.069 C -46.655 -29.628 -63.158 -27.108 -78.396 -21.527 C -76.815 -17.437 -75.315 -13.413 -73.858 -9.500000000000002 C -64.46000000000001 15.717999999999998 -57.037000000000006 35.638 -40.958000000000006 37.514 C -36.011 38.093 -31.026000000000003 38.019000000000005 -25.708000000000006 37.283 C -8.512 34.913 0.867 16.465 0 0 M -98.932 87.929 C -91.04 89.06400000000001 -75.352 88.23700000000001 -58.974000000000004 69.85300000000001 C -69.705 70.95100000000001 -88.471 74.769 -98.932 87.929 M -151.044 -99.92699999999999 C -191.991 -120.38499999999999 -230.305 -102.773 -250.104 -76.24199999999999 C -270.314 -49.16399999999999 -276.425 -6.567999999999984 -244.52200000000002 27.55300000000001 C -238.53900000000002 33.95200000000001 -231.70600000000002 40.38000000000001 -224.17000000000002 46.72700000000001 C -223.98000000000002 46.15800000000001 -223.782 45.57300000000001 -223.568 44.95000000000001 C -219.93400000000003 34.33400000000001 -214.441 18.28900000000001 -235.41000000000003 1.7890000000000086 C -236.23600000000002 1.1400000000000086 -236.80300000000003 0.21800000000000863 -237.00800000000004 -0.8119999999999914 C -237.23000000000005 -1.9209999999999914 -238.69800000000004 -11.63199999999999 -224.76200000000003 -21.38499999999999 C -224.46700000000004 -22.91599999999999 -224.34700000000004 -24.496999999999993 -224.50000000000003 -25.16399999999999 C -225.31100000000004 -26.315999999999992 -225.59200000000004 -27.75699999999999 -225.27500000000003 -29.164999999999992 C -224.93500000000003 -30.682999999999993 -224.25600000000003 -33.70499999999999 -208.95800000000003 -41.617999999999995 C -213.497 -48.77499999999999 -214.42600000000002 -54.01299999999999 -211.71300000000002 -57.22 C -209.51200000000003 -59.82 -208.51700000000002 -61.257999999999996 -209.931 -65.499 C -211.185 -69.261 -210.12800000000001 -73.521 -207.03 -77.191 C -202.85 -82.146 -196.04 -85.024 -188.948 -85.023 C -187.63400000000001 -85.023 -186.309 -84.925 -184.991 -84.723 C -180.95200000000003 -84.101 -176.31 -82.16499999999999 -171.39200000000002 -80.115 C -159.88100000000003 -75.31599999999999 -146.83500000000004 -69.878 -135.99500000000003 -77.57799999999999 C -134.01000000000002 -78.98799999999999 -131.25600000000003 -78.52199999999999 -129.84500000000003 -76.53799999999998 C -128.43500000000003 -74.55299999999998 -128.90000000000003 -71.79899999999998 -130.88600000000002 -70.38799999999998 C -136.80900000000003 -66.17999999999998 -143.04700000000003 -64.77499999999998 -149.187 -64.92699999999998 C -143.29500000000002 -60.39499999999998 -137.5 -55.12999999999998 -132.726 -49.22899999999998 C -131.193 -47.33599999999998 -131.486 -44.558999999999976 -133.38 -43.025999999999975 C -135.271 -41.494999999999976 -138.04999999999998 -41.787999999999975 -139.582 -43.680999999999976 C -154.48 -62.092999999999975 -181.488 -74.33499999999998 -184.128 -75.50199999999998 C -184.914 -75.72299999999998 -185.65699999999998 -75.89999999999998 -186.332 -76.00399999999998 C -192.542 -76.95899999999997 -197.817 -74.43299999999998 -200.289 -71.50399999999998 C -201.31099999999998 -70.29299999999998 -201.81099999999998 -69.03099999999998 -201.56199999999998 -68.28899999999997 C -198.94 -60.41999999999997 -201.468 -55.84799999999997 -204.35899999999998 -52.269999999999975 C -203.92399999999998 -50.39699999999998 -201.515 -46.083999999999975 -198.908 -42.60099999999997 C -198.12099999999998 -41.54899999999997 -197.843 -40.19899999999997 -198.15099999999998 -38.92199999999997 C -198.45899999999997 -37.64499999999997 -199.32199999999997 -36.56999999999997 -200.50199999999998 -35.99299999999997 C -206.308 -33.157999999999966 -213.10099999999997 -29.366999999999965 -215.94099999999997 -27.234999999999967 C -215.10399999999998 -23.68099999999997 -216.05899999999997 -19.471999999999966 -216.62899999999996 -17.478999999999967 C -216.92099999999996 -16.45399999999997 -217.57499999999996 -15.569999999999967 -218.46799999999996 -14.990999999999968 C -225.89499999999995 -10.169999999999968 -227.74699999999996 -5.820999999999968 -228.19499999999996 -3.7119999999999678 C -204.42099999999996 16.24900000000003 -211.68699999999995 37.479000000000035 -215.22399999999996 47.80700000000003 C -215.93799999999996 49.89500000000003 -216.61299999999997 51.86700000000003 -216.71899999999997 52.88500000000003 C -218.69599999999997 72.12100000000004 -198.58699999999996 89.60700000000003 -195.77999999999997 91.94500000000004 C -193.42299999999997 93.05200000000004 -185.21199999999996 95.99100000000004 -179.36999999999998 86.61700000000003 C -178.06999999999996 81.77400000000003 -169.67699999999996 52.634000000000036 -148.69299999999998 23.488000000000035 C -132.25199999999998 0.6500000000000341 -112.36299999999999 -16.044999999999966 -89.76199999999999 -26.221999999999966 C -101.11699999999999 -53.85199999999996 -117.41199999999998 -83.12699999999997 -151.04399999999998 -99.92699999999996 M -142.91699999999997 111.54500000000004 C -134.91699999999997 116.76800000000004 -119.42599999999997 123.42100000000005 -96.88599999999997 118.01100000000004 C -105.13799999999996 113.82000000000004 -121.85399999999997 107.57100000000004 -142.91699999999997 111.54500000000004 M -141.36699999999996 163.69500000000005 C -121.69199999999996 159.06200000000004 -113.83399999999996 145.58100000000005 -110.72899999999996 136.57600000000005 C -114.76099999999995 138.48100000000005 -118.77399999999996 140.11700000000005 -122.73499999999996 141.52200000000005 C -131.73599999999996 146.41300000000004 -137.97799999999995 156.72200000000004 -141.36699999999996 163.69500000000005 M -202.55699999999996 138.38700000000006 C -190.48099999999997 140.53400000000005 -168.54599999999996 142.93200000000004 -144.50299999999996 138.31600000000006 C -156.14599999999996 132.66800000000006 -179.17899999999997 125.14500000000007 -202.55699999999996 138.38700000000006 M -67.26099999999997 143.91400000000004 C -60.554999999999964 133.96000000000004 -50.203999999999965 113.76400000000004 -59.75999999999997 94.16700000000004 C -64.49599999999997 104.40600000000005 -71.91899999999997 124.73200000000004 -67.26099999999997 143.91400000000004 M -24.502999999999965 46.02100000000004 C -29.102999999999966 46.655000000000044 -33.50199999999997 46.85200000000005 -37.84599999999996 46.62200000000004 C -42.56499999999996 61.38500000000004 -48.33899999999996 74.08700000000005 -54.86599999999996 84.96800000000005 C -32.561999999999955 119.10300000000004 -65.17599999999996 155.79500000000004 -65.51599999999996 156.17000000000004 L -70.10599999999997 161.23300000000003 L -72.82899999999997 154.96600000000004 C -79.27899999999997 140.12500000000003 -78.25899999999996 124.31400000000004 -75.12099999999997 111.28300000000004 C -83.16599999999997 119.44100000000005 -91.67999999999996 125.91000000000004 -100.28699999999996 131.02000000000004 C -101.79299999999996 139.59800000000004 -109.79899999999996 169.82500000000005 -148.10399999999996 173.73500000000004 L -154.90999999999997 174.42900000000003 L -152.73299999999998 167.94300000000004 C -152.50799999999998 167.27300000000005 -148.82899999999998 156.54700000000003 -141.307 146.66900000000004 C -141.528 146.71400000000003 -141.754 146.76600000000005 -141.975 146.81000000000003 C -180.522 154.44900000000004 -213.38799999999998 145.13500000000002 -214.766 144.73300000000003 L -222.98499999999999 142.35000000000002 L -216.27399999999997 137.04000000000002 C -177.67799999999997 106.50200000000002 -135.97299999999996 132.66500000000002 -131.97899999999998 135.30400000000003 C -130.171 134.77700000000004 -128.396 134.20100000000002 -126.63499999999999 133.60300000000004 C -122.92399999999999 131.60200000000003 -119.809 130.02100000000004 -117.196 128.76900000000003 C -141.981 127.40300000000003 -155.127 113.11300000000003 -155.823 112.33500000000004 L -160.413 107.20500000000004 L -153.834 105.17900000000004 C -145.019 102.46500000000005 -136.769 101.41200000000005 -129.26 101.41200000000005 C -109.404 101.41200000000005 -94.774 108.78800000000005 -88.874 112.34500000000006 C -81.113 105.75100000000006 -74.137 98.04200000000006 -67.965 89.21400000000006 C -89.148 102.56800000000005 -106.834 95.09600000000006 -107.78800000000001 94.67500000000005 L -112.174 92.73700000000005 L -109.878 88.52800000000005 C -96.878 64.70400000000005 -66.21000000000001 61.08900000000005 -53.628 60.64000000000004 L -53.626 60.64000000000004 C -53.547999999999995 60.63700000000004 -53.47 60.636000000000045 -53.391999999999996 60.636000000000045 C -53.059 60.636000000000045 -52.733 60.667000000000044 -52.412 60.716000000000044 C -50.338 55.80600000000004 -48.42 50.68300000000004 -46.672 45.331000000000046 C -64.744 40.18100000000005 -72.854 18.454000000000047 -82.122 -6.419999999999952 C -83.549 -10.246999999999952 -85.017 -14.184999999999953 -86.564 -18.18699999999995 C -107.457 -8.727999999999952 -125.786 6.838000000000047 -141.374 28.418000000000045 C -162.958 58.30000000000005 -170.911 89.12200000000004 -170.988 89.43000000000005 L -171.144 90.04200000000004 L -171.46200000000002 90.58500000000005 C -180.02100000000002 105.16200000000005 -193.901 102.89800000000005 -200.15 99.62400000000005 L -200.173 99.61300000000006 C -200.201 99.59800000000006 -200.232 99.58300000000006 -200.261 99.56800000000005 L -200.257 99.56000000000006 C -200.483 99.43800000000006 -200.705 99.30500000000006 -200.91400000000002 99.14100000000006 C -201.95200000000003 98.32300000000006 -224.76800000000003 80.06800000000007 -225.644 56.94900000000006 C -235.126 49.26000000000006 -243.645 41.40700000000006 -250.966 33.576000000000064 C -286.349 -4.265999999999934 -279.579 -51.49699999999993 -257.17400000000004 -81.51799999999993 C -241.86800000000002 -102.02599999999993 -216.60600000000005 -117.73699999999994 -187.31700000000004 -117.73399999999992 C -174.51700000000002 -117.73399999999992 -160.94300000000004 -114.73099999999992 -147.10100000000003 -107.81699999999992 C -110.71200000000002 -89.64099999999992 -93.50600000000003 -58.64399999999992 -81.59200000000003 -29.571999999999917 C -65.16700000000003 -35.66899999999992 -47.42100000000003 -38.490999999999914 -28.642000000000024 -37.88599999999992 C -2.4080000000000226 -37.05099999999992 7.928999999999974 -17.204999999999917 8.809999999999974 -0.4639999999999205 C 9.869999999999974 19.69900000000008 -1.4440000000000257 42.84300000000008 -24.50300000000003 46.02100000000008" stroke-linecap="round" />
</g>
		<g transform="matrix(0.7811107778947826 0 0 -0.7811107778947827 4.776392750960781 40.00635451004288)"  >
<path style="stroke: none; stroke-width: 1; stroke-dasharray: none; stroke-linecap: butt; stroke-dashoffset: 0; stroke-linejoin: miter; stroke-miterlimit: 4; fill: rgb(255,94,185); fill-rule: nonzero; opacity: 1;"  paint-order="stroke"  transform=" translate(-5.755742399169283, -10.593138876508027)" d="M 0 0 C -1.025 -2.209 -0.065 -4.832 2.144 -5.857 C 2.744 -6.136 3.375 -6.269 3.998 -6.269 C 5.662 -6.269 7.254 -5.322 8.001000000000001 -3.714 C 12.329 5.609 13.078000000000001 15.046000000000001 10.229000000000001 24.336000000000002 C 9.514 26.665 7.047 27.975 4.719 27.26 C 2.391 26.545 1.081 24.078 1.797 21.75 C 4.019 14.505 3.431 7.391 0 0" stroke-linecap="round" />
</g>
		<g transform="matrix(0.7811107778947826 0 0 -0.7811107778947827 10.498177728342739 -17.92671558089137)"  >
<path style="stroke: none; stroke-width: 1; stroke-dasharray: none; stroke-linecap: butt; stroke-dashoffset: 0; stroke-linejoin: miter; stroke-miterlimit: 4; fill: rgb(255,94,185); fill-rule: nonzero; opacity: 1;"  paint-order="stroke"  transform=" translate(31.1885674494374, -43.81538556825022)" d="M 0 0 C 0.263 -0.047 0.523 -0.069 0.781 -0.069 C 2.8770000000000002 -0.069 4.736 1.4300000000000002 5.117 3.564 C 5.546 5.962 3.949 8.254000000000001 1.553 8.683 C -43.040000000000006 16.655 -58.698 83.58600000000001 -58.851000000000006 84.262 C -59.389 86.636 -61.745000000000005 88.128 -64.125 87.59 C -66.5 87.053 -67.99 84.69500000000001 -67.455 82.319 C -66.78 79.33 -50.367 9.005 0 0" stroke-linecap="round" />
</g>
</g>
</g>
<g transform="matrix(1.9211538461538462 0 0 1.9211538461538462 635.7974759615385 722.281734311021)" id="text-logo"  >
<g style=""  paint-order="stroke"   >
		<g transform="matrix(0.9999999999999999 0 0 1 0 0)" id="text-logo-path-0"  >
<path style="stroke: none; stroke-width: 0; stroke-dasharray: none; stroke-linecap: butt; stroke-dashoffset: 0; stroke-linejoin: miter; stroke-miterlimit: 4; fill: rgb(255,94,185); fill-rule: nonzero; opacity: 1;"  paint-order="stroke"  transform=" translate(-197.125, 17.875)" d="M 3.95 0 L 3.95 -35.7 L 11.35 -35.7 L 11.35 -18.45 C 11.35 -17.6 11.35 -16.7 11.35 -15.65 C 11.3 -14.6 11.3 -13.6 11.25 -12.65 C 11.2 -11.65 11.2 -10.8 11.15 -10.1 C 11.1 -9.35 11.05 -8.85 11 -8.6 L 11 -8.6 L 11.2 -8.6 L 25.85 -35.7 L 35.3 -35.7 L 35.3 0 L 27.9 0 L 27.9 -17.15 C 27.9 -18.05 27.9 -19.05 27.95 -20.15 C 28 -21.2 28 -22.25 28.05 -23.25 C 28.1 -24.25 28.15 -25.15 28.2 -25.9 C 28.25 -26.65 28.25 -27.1 28.3 -27.35 L 28.3 -27.35 L 28.15 -27.35 L 13.45 0 L 3.95 0 Z M 47.5 -35.7 L 58.55 -35.7 C 61.65 -35.7 64.2 -35.4 66.2 -34.85 C 68.2 -34.25 69.7 -33.3 70.65 -32 C 71.6 -30.65 72.1 -28.9 72.1 -26.65 L 72.1 -26.65 C 72.1 -25.3 71.85 -24.1 71.4 -23 C 70.95 -21.9 70.3 -21 69.55 -20.3 C 68.75 -19.6 67.85 -19.15 66.9 -18.95 L 66.9 -18.95 L 66.9 -18.7 C 67.9 -18.45 68.85 -18.05 69.8 -17.45 C 70.7 -16.85 71.45 -16 72 -14.85 C 72.55 -13.7 72.85 -12.2 72.85 -10.35 L 72.85 -10.35 C 72.85 -8.2 72.35 -6.3 71.35 -4.8 C 70.3 -3.25 68.85 -2.05 67 -1.25 C 65.15 -0.4 62.9 0 60.3 0 L 60.3 0 L 47.5 0 L 47.5 -35.7 Z M 55.6 -21.55 L 59 -21.55 C 60.8 -21.55 62.05 -21.9 62.75 -22.6 C 63.45 -23.3 63.8 -24.3 63.8 -25.65 L 63.8 -25.65 C 63.8 -27 63.4 -28 62.6 -28.6 C 61.75 -29.2 60.5 -29.5 58.75 -29.5 L 58.75 -29.5 L 55.6 -29.5 L 55.6 -21.55 Z M 59.3 -15.55 L 55.6 -15.55 L 55.6 -6.25 L 59.5 -6.25 C 61.35 -6.25 62.65 -6.7 63.4 -7.6 C 64.15 -8.45 64.5 -9.65 64.5 -11.1 L 64.5 -11.1 C 64.5 -12 64.35 -12.8 64.05 -13.45 C 63.7 -14.1 63.15 -14.65 62.45 -15 C 61.7 -15.35 60.65 -15.55 59.3 -15.55 L 59.3 -15.55 Z M 91.95 -29.9 L 91.95 -29.9 C 90.4 -29.9 88.95 -29.7 87.6 -29.25 C 86.25 -28.8 84.85 -28.25 83.5 -27.6 L 83.5 -27.6 L 81.1 -33.7 C 82.65 -34.45 84.35 -35.1 86.25 -35.55 C 88.1 -36 90.15 -36.2 92.3 -36.2 L 92.3 -36.2 C 94.95 -36.2 97.25 -35.8 99.25 -35 C 101.2 -34.15 102.85 -32.95 104.2 -31.4 C 105.55 -29.8 106.55 -27.85 107.25 -25.6 C 107.9 -23.3 108.25 -20.7 108.25 -17.8 L 108.25 -17.8 C 108.25 -14.15 107.65 -10.95 106.5 -8.2 C 105.35 -5.45 103.55 -3.3 101.15 -1.8 C 98.7 -0.25 95.6 0.5 91.85 0.5 L 91.85 0.5 C 89.9 0.5 88.15 0.35 86.5 0.05 C 84.85 -0.25 83.3 -0.7 81.85 -1.35 L 81.85 -1.35 L 81.85 -7.7 C 83.6 -7.1 85.2 -6.65 86.7 -6.3 C 88.2 -5.95 89.75 -5.8 91.4 -5.8 L 91.4 -5.8 C 92.75 -5.8 93.9 -6 94.9 -6.4 C 95.9 -6.75 96.75 -7.35 97.45 -8.1 C 98.15 -8.85 98.7 -9.8 99.1 -10.95 C 99.45 -12.1 99.7 -13.4 99.75 -14.9 L 99.75 -14.9 L 85.8 -14.9 L 85.8 -21.1 L 99.75 -21.1 C 99.65 -22.5 99.4 -23.75 99 -24.85 C 98.6 -25.9 98.05 -26.85 97.4 -27.6 C 96.75 -28.35 95.95 -28.9 95.05 -29.3 C 94.1 -29.7 93.1 -29.9 91.95 -29.9 Z M 127.55 -29.9 L 127.55 -29.9 C 126 -29.9 124.55 -29.7 123.2 -29.25 C 121.85 -28.8 120.45 -28.25 119.1 -27.6 L 119.1 -27.6 L 116.7 -33.7 C 118.25 -34.45 119.95 -35.1 121.85 -35.55 C 123.7 -36 125.75 -36.2 127.9 -36.2 L 127.9 -36.2 C 130.55 -36.2 132.85 -35.8 134.85 -35 C 136.8 -34.15 138.45 -32.95 139.8 -31.4 C 141.15 -29.8 142.15 -27.85 142.85 -25.6 C 143.5 -23.3 143.85 -20.7 143.85 -17.8 L 143.85 -17.8 C 143.85 -14.15 143.25 -10.95 142.1 -8.2 C 140.95 -5.45 139.15 -3.3 136.75 -1.8 C 134.3 -0.25 131.2 0.5 127.45 0.5 L 127.45 0.5 C 125.5 0.5 123.75 0.35 122.1 0.05 C 120.45 -0.25 118.9 -0.7 117.45 -1.35 L 117.45 -1.35 L 117.45 -7.7 C 119.2 -7.1 120.8 -6.65 122.3 -6.3 C 123.8 -5.95 125.35 -5.8 127 -5.8 L 127 -5.8 C 128.35 -5.8 129.5 -6 130.5 -6.4 C 131.5 -6.75 132.35 -7.35 133.05 -8.1 C 133.75 -8.85 134.3 -9.8 134.7 -10.95 C 135.05 -12.1 135.3 -13.4 135.35 -14.9 L 135.35 -14.9 L 121.4 -14.9 L 121.4 -21.1 L 135.35 -21.1 C 135.25 -22.5 135 -23.75 134.6 -24.85 C 134.2 -25.9 133.65 -26.85 133 -27.6 C 132.35 -28.35 131.55 -28.9 130.65 -29.3 C 129.7 -29.7 128.7 -29.9 127.55 -29.9 Z M 182.15 -35.7 L 182.15 0 L 174.05 0 L 174.05 -29.4 L 166.75 -29.4 C 166.6 -27.85 166.45 -26.2 166.25 -24.4 C 166.05 -22.6 165.85 -20.8 165.6 -18.95 C 165.35 -17.1 165.15 -15.35 164.9 -13.7 C 164.65 -12.05 164.4 -10.55 164.15 -9.3 L 164.15 -9.3 C 163.75 -7.25 163.2 -5.45 162.45 -4 C 161.7 -2.55 160.75 -1.4 159.5 -0.65 C 158.25 0.1 156.6 0.5 154.65 0.5 L 154.65 0.5 C 154 0.5 153.35 0.45 152.8 0.35 C 152.25 0.25 151.7 0.1 151.15 -0.05 L 151.15 -0.05 L 151.15 -6.25 C 151.55 -6.1 151.95 -6 152.35 -5.9 C 152.7 -5.8 153.1 -5.75 153.5 -5.75 L 153.5 -5.75 C 154.05 -5.75 154.55 -5.95 154.95 -6.4 C 155.35 -6.85 155.7 -7.6 156.05 -8.65 C 156.4 -9.7 156.7 -11.15 157.05 -13 L 157.05 -13 C 157.2 -13.8 157.35 -14.95 157.6 -16.45 C 157.8 -17.9 158.05 -19.65 158.3 -21.7 C 158.55 -23.7 158.85 -25.9 159.15 -28.3 C 159.45 -30.65 159.75 -33.15 160 -35.7 L 160 -35.7 L 182.15 -35.7 Z M 223.2 -29.9 L 223.2 -29.9 C 222 -29.9 220.95 -29.6 220 -29.05 C 219.05 -28.5 218.2 -27.7 217.55 -26.65 C 216.9 -25.6 216.4 -24.3 216.05 -22.8 C 215.7 -21.3 215.55 -19.6 215.55 -17.75 L 215.55 -17.75 C 215.55 -15.2 215.85 -13.05 216.4 -11.3 C 216.95 -9.5 217.85 -8.15 219 -7.2 C 220.15 -6.25 221.65 -5.8 223.45 -5.8 L 223.45 -5.8 C 224.9 -5.8 226.3 -5.95 227.7 -6.3 C 229.05 -6.65 230.5 -7.1 232 -7.7 L 232 -7.7 L 232 -1.35 C 230.55 -0.7 229.05 -0.25 227.55 0.05 C 226.05 0.35 224.4 0.5 222.65 0.5 L 222.65 0.5 C 219.1 0.5 216.15 -0.25 213.9 -1.8 C 211.65 -3.3 209.95 -5.45 208.9 -8.2 C 207.8 -10.95 207.25 -14.15 207.25 -17.8 L 207.25 -17.8 C 207.25 -20.5 207.6 -23 208.3 -25.25 C 209 -27.5 210.05 -29.4 211.4 -31.05 C 212.75 -32.7 214.45 -33.95 216.45 -34.85 C 218.4 -35.75 220.7 -36.2 223.25 -36.2 L 223.25 -36.2 C 224.9 -36.2 226.65 -36 228.55 -35.55 C 230.4 -35.1 232 -34.45 233.35 -33.7 L 233.35 -33.7 L 230.8 -27.55 C 229.55 -28.2 228.35 -28.75 227.1 -29.2 C 225.85 -29.65 224.55 -29.9 223.2 -29.9 Z M 272.45 0 L 263.7 0 L 261.65 -8.5 L 250.1 -8.5 L 248 0 L 239.2 0 L 250.6 -35.85 L 261 -35.85 L 272.45 0 Z M 259.9 -14.85 L 257.55 -23.15 C 257.35 -23.85 257.15 -24.6 256.95 -25.35 C 256.75 -26.1 256.55 -26.9 256.4 -27.75 C 256.2 -28.6 256 -29.45 255.85 -30.3 L 255.85 -30.3 C 255.6 -28.95 255.35 -27.7 255.05 -26.5 C 254.75 -25.25 254.45 -24.15 254.2 -23.15 L 254.2 -23.15 L 251.9 -14.85 L 259.9 -14.85 Z M 308.2 -35.7 L 308.2 0 L 300.1 0 L 300.1 -29.4 L 292.8 -29.4 C 292.65 -27.85 292.5 -26.2 292.3 -24.4 C 292.1 -22.6 291.9 -20.8 291.65 -18.95 C 291.4 -17.1 291.2 -15.35 290.95 -13.7 C 290.7 -12.05 290.45 -10.55 290.2 -9.3 L 290.2 -9.3 C 289.8 -7.25 289.25 -5.45 288.5 -4 C 287.75 -2.55 286.8 -1.4 285.55 -0.65 C 284.3 0.1 282.65 0.5 280.7 0.5 L 280.7 0.5 C 280.05 0.5 279.4 0.45 278.85 0.35 C 278.3 0.25 277.75 0.1 277.2 -0.05 L 277.2 -0.05 L 277.2 -6.25 C 277.6 -6.1 278 -6 278.4 -5.9 C 278.75 -5.8 279.15 -5.75 279.55 -5.75 L 279.55 -5.75 C 280.1 -5.75 280.6 -5.95 281 -6.4 C 281.4 -6.85 281.75 -7.6 282.1 -8.65 C 282.45 -9.7 282.75 -11.15 283.1 -13 L 283.1 -13 C 283.25 -13.8 283.4 -14.95 283.65 -16.45 C 283.85 -17.9 284.1 -19.65 284.35 -21.7 C 284.6 -23.7 284.9 -25.9 285.2 -28.3 C 285.5 -30.65 285.8 -33.15 286.05 -35.7 L 286.05 -35.7 L 308.2 -35.7 Z M 351.3 -17.9 L 351.3 -17.9 C 351.3 -15.15 351 -12.6 350.35 -10.4 C 349.7 -8.15 348.75 -6.2 347.45 -4.55 C 346.15 -2.9 344.5 -1.65 342.45 -0.8 C 340.4 0.05 337.95 0.5 335.15 0.5 L 335.15 0.5 C 332.4 0.5 330 0.05 327.95 -0.85 C 325.9 -1.7 324.25 -2.95 322.95 -4.6 C 321.6 -6.2 320.65 -8.15 320 -10.4 C 319.35 -12.65 319 -15.2 319 -17.95 L 319 -17.95 C 319 -21.65 319.6 -24.85 320.75 -27.6 C 321.9 -30.35 323.65 -32.45 326.05 -34 C 328.45 -35.5 331.5 -36.25 335.2 -36.25 L 335.2 -36.25 C 338.95 -36.25 342 -35.5 344.35 -34 C 346.7 -32.45 348.45 -30.35 349.6 -27.6 C 350.75 -24.85 351.3 -21.6 351.3 -17.9 Z M 327.5 -17.9 L 327.5 -17.9 C 327.5 -15.4 327.75 -13.25 328.3 -11.45 C 328.8 -9.65 329.6 -8.25 330.75 -7.3 C 331.9 -6.35 333.35 -5.85 335.15 -5.85 L 335.15 -5.85 C 337 -5.85 338.45 -6.35 339.6 -7.3 C 340.7 -8.25 341.5 -9.65 342.05 -11.45 C 342.55 -13.25 342.8 -15.4 342.8 -17.9 L 342.8 -17.9 C 342.8 -21.65 342.2 -24.6 341.05 -26.75 C 339.9 -28.9 337.95 -29.95 335.2 -29.95 L 335.2 -29.95 C 333.35 -29.95 331.9 -29.45 330.75 -28.5 C 329.6 -27.55 328.8 -26.15 328.3 -24.35 C 327.75 -22.55 327.5 -20.4 327.5 -17.9 Z M 390.3 -35.7 L 390.3 0 L 382.15 0 L 382.15 -15.4 L 370.25 -15.4 L 370.25 0 L 362.15 0 L 362.15 -35.7 L 370.25 -35.7 L 370.25 -21.7 L 382.15 -21.7 L 382.15 -35.7 L 390.3 -35.7 Z" stroke-linecap="round" />
</g>
</g>
</g>
<g transform="matrix(1 0 0 1 325 421.85245779953044)" id="tagline-33563cdd-0957-447e-9078-3f8b39cb9969-logo"  >
<g style=""  paint-order="stroke"   >
		<g transform="matrix(0.9999999999999999 0 0 1 0 0)" id="tagline-33563cdd-0957-447e-9078-3f8b39cb9969-logo-path-0"  >
<path style="stroke: none; stroke-width: 0; stroke-dasharray: none; stroke-linecap: butt; stroke-dashoffset: 0; stroke-linejoin: miter; stroke-miterlimit: 4; fill: rgb(255,94,185); fill-rule: nonzero; opacity: 1;"  paint-order="stroke"  transform=" translate(0, 0)" d="" stroke-linecap="round" />
</g>
</g>
</g>
</svg>